<svg xmlns="http://www.w3.org/2000/svg" xmlns:xlink="http://www.w3.org/1999/xlink" width="500" zoomAndPan="magnify" viewBox="0 0 375 374.999991" height="500" preserveAspectRatio="xMidYMid meet" version="1.0"><defs><g/><clipPath id="84514efe5d"><path d="M 113.089844 14.671875 L 261.589844 14.671875 L 261.589844 220.171875 L 113.089844 220.171875 Z M 113.089844 14.671875 " clip-rule="nonzero"/></clipPath></defs><g clip-path="url(#84514efe5d)"><path fill="#f7f7fa" d="M 214.4375 87.445312 L 214.4375 48.308594 L 223.257812 14.671875 L 151.417969 14.671875 L 160.234375 48.308594 L 195.78125 48.308594 L 195.78125 100.234375 C 229.835938 105.324219 250.050781 137.765625 240.242188 170.441406 C 227.285156 213.597656 154.695312 130.632812 147.054688 197.148438 C 136.738281 186.796875 130.347656 172.515625 130.347656 156.757812 C 130.347656 128.125 151.460938 104.335938 178.894531 100.234375 L 178.894531 63.496094 L 160.238281 63.496094 L 160.238281 87.445312 C 132.652344 98.300781 113.121094 125.246094 113.121094 156.765625 C 113.121094 183.574219 127.257812 207.070312 148.457031 220.171875 L 226.222656 220.171875 C 247.421875 207.070312 261.5625 183.570312 261.5625 156.765625 C 261.5625 125.246094 242.027344 98.300781 214.441406 87.445312 Z M 214.4375 87.445312 " fill-opacity="1" fill-rule="nonzero"/></g><path fill="#00afef" d="M 221.949219 129.753906 C 221.949219 130.699219 221.855469 131.636719 221.671875 132.566406 C 221.488281 133.496094 221.214844 134.394531 220.855469 135.269531 C 220.492188 136.144531 220.050781 136.976562 219.527344 137.765625 C 219 138.550781 218.40625 139.28125 217.738281 139.949219 C 217.070312 140.621094 216.34375 141.21875 215.558594 141.742188 C 214.773438 142.269531 213.945312 142.714844 213.070312 143.074219 C 212.199219 143.4375 211.300781 143.710938 210.375 143.898438 C 209.449219 144.082031 208.511719 144.171875 207.570312 144.171875 C 206.625 144.171875 205.6875 144.082031 204.761719 143.898438 C 203.835938 143.710938 202.9375 143.4375 202.066406 143.074219 C 201.191406 142.714844 200.363281 142.269531 199.578125 141.742188 C 198.792969 141.21875 198.066406 140.621094 197.398438 139.949219 C 196.730469 139.28125 196.136719 138.550781 195.613281 137.765625 C 195.085938 136.976562 194.644531 136.144531 194.28125 135.269531 C 193.921875 134.394531 193.648438 133.496094 193.464844 132.566406 C 193.28125 131.636719 193.1875 130.699219 193.1875 129.753906 C 193.1875 128.804688 193.28125 127.867188 193.464844 126.9375 C 193.648438 126.011719 193.921875 125.109375 194.28125 124.234375 C 194.644531 123.359375 195.085938 122.527344 195.613281 121.742188 C 196.136719 120.953125 196.730469 120.222656 197.398438 119.554688 C 198.066406 118.886719 198.792969 118.289062 199.578125 117.761719 C 200.363281 117.234375 201.191406 116.792969 202.066406 116.429688 C 202.9375 116.066406 203.835938 115.792969 204.761719 115.609375 C 205.6875 115.421875 206.625 115.332031 207.570312 115.332031 C 208.511719 115.332031 209.449219 115.421875 210.375 115.609375 C 211.300781 115.792969 212.199219 116.066406 213.070312 116.429688 C 213.945312 116.792969 214.773438 117.234375 215.558594 117.761719 C 216.34375 118.289062 217.070312 118.886719 217.738281 119.554688 C 218.40625 120.222656 219 120.953125 219.527344 121.742188 C 220.050781 122.527344 220.492188 123.359375 220.855469 124.234375 C 221.214844 125.109375 221.488281 126.011719 221.671875 126.9375 C 221.855469 127.867188 221.949219 128.804688 221.949219 129.753906 Z M 221.949219 129.753906 " fill-opacity="1" fill-rule="nonzero"/><path fill="#00afef" d="M 161.078125 147.667969 C 161.078125 148.367188 161.011719 149.058594 160.875 149.746094 C 160.738281 150.429688 160.539062 151.097656 160.269531 151.742188 C 160.003906 152.390625 159.675781 153.003906 159.289062 153.585938 C 158.902344 154.167969 158.460938 154.703125 157.96875 155.199219 C 157.472656 155.695312 156.9375 156.136719 156.359375 156.523438 C 155.777344 156.914062 155.164062 157.242188 154.523438 157.507812 C 153.878906 157.777344 153.210938 157.976562 152.527344 158.113281 C 151.84375 158.25 151.152344 158.320312 150.457031 158.320312 C 149.757812 158.320312 149.066406 158.25 148.382812 158.113281 C 147.699219 157.976562 147.035156 157.777344 146.390625 157.507812 C 145.746094 157.242188 145.132812 156.914062 144.554688 156.523438 C 143.972656 156.136719 143.4375 155.695312 142.945312 155.199219 C 142.453125 154.703125 142.011719 154.167969 141.625 153.585938 C 141.234375 153.003906 140.910156 152.390625 140.640625 151.742188 C 140.375 151.097656 140.171875 150.429688 140.039062 149.746094 C 139.902344 149.058594 139.832031 148.367188 139.832031 147.667969 C 139.832031 146.96875 139.902344 146.273438 140.039062 145.589844 C 140.171875 144.902344 140.375 144.238281 140.640625 143.589844 C 140.910156 142.945312 141.234375 142.328125 141.625 141.75 C 142.011719 141.167969 142.453125 140.628906 142.945312 140.132812 C 143.4375 139.640625 143.972656 139.199219 144.554688 138.808594 C 145.132812 138.421875 145.746094 138.09375 146.390625 137.824219 C 147.035156 137.558594 147.699219 137.355469 148.382812 137.21875 C 149.066406 137.082031 149.757812 137.015625 150.457031 137.015625 C 151.152344 137.015625 151.84375 137.082031 152.527344 137.21875 C 153.210938 137.355469 153.878906 137.558594 154.523438 137.824219 C 155.164062 138.09375 155.777344 138.421875 156.359375 138.808594 C 156.9375 139.199219 157.472656 139.640625 157.96875 140.132812 C 158.460938 140.628906 158.902344 141.167969 159.289062 141.75 C 159.675781 142.328125 160.003906 142.945312 160.269531 143.589844 C 160.539062 144.238281 160.738281 144.902344 160.875 145.589844 C 161.011719 146.273438 161.078125 146.96875 161.078125 147.667969 Z M 161.078125 147.667969 " fill-opacity="1" fill-rule="nonzero"/><path fill="#00afef" d="M 174.5 124.128906 C 174.5 124.652344 174.449219 125.167969 174.347656 125.679688 C 174.246094 126.1875 174.097656 126.683594 173.898438 127.167969 C 173.699219 127.648438 173.457031 128.105469 173.167969 128.539062 C 172.878906 128.972656 172.550781 129.371094 172.183594 129.738281 C 171.816406 130.109375 171.414062 130.4375 170.984375 130.726562 C 170.550781 131.015625 170.097656 131.261719 169.617188 131.460938 C 169.136719 131.660156 168.640625 131.808594 168.132812 131.910156 C 167.621094 132.011719 167.109375 132.0625 166.589844 132.0625 C 166.070312 132.0625 165.554688 132.011719 165.046875 131.910156 C 164.535156 131.808594 164.039062 131.660156 163.5625 131.460938 C 163.082031 131.261719 162.625 131.015625 162.191406 130.726562 C 161.761719 130.4375 161.363281 130.109375 160.996094 129.738281 C 160.625 129.371094 160.300781 128.972656 160.011719 128.539062 C 159.722656 128.105469 159.476562 127.648438 159.277344 127.167969 C 159.082031 126.683594 158.929688 126.1875 158.828125 125.679688 C 158.726562 125.167969 158.675781 124.652344 158.675781 124.128906 C 158.675781 123.609375 158.726562 123.09375 158.828125 122.582031 C 158.929688 122.070312 159.082031 121.574219 159.277344 121.09375 C 159.476562 120.613281 159.722656 120.15625 160.011719 119.722656 C 160.300781 119.289062 160.625 118.886719 160.996094 118.519531 C 161.363281 118.152344 161.761719 117.824219 162.191406 117.535156 C 162.625 117.242188 163.082031 117 163.5625 116.800781 C 164.039062 116.601562 164.535156 116.449219 165.046875 116.347656 C 165.554688 116.246094 166.070312 116.195312 166.589844 116.195312 C 167.109375 116.195312 167.621094 116.246094 168.132812 116.347656 C 168.640625 116.449219 169.136719 116.601562 169.617188 116.800781 C 170.097656 117 170.550781 117.242188 170.984375 117.535156 C 171.414062 117.824219 171.816406 118.152344 172.183594 118.519531 C 172.550781 118.886719 172.878906 119.289062 173.167969 119.722656 C 173.457031 120.15625 173.699219 120.613281 173.898438 121.09375 C 174.097656 121.574219 174.246094 122.070312 174.347656 122.582031 C 174.449219 123.09375 174.5 123.609375 174.5 124.128906 Z M 174.5 124.128906 " fill-opacity="1" fill-rule="nonzero"/><path fill="#00afef" d="M 185.664062 147.636719 C 185.664062 148.035156 185.625 148.429688 185.546875 148.820312 C 185.46875 149.210938 185.355469 149.589844 185.203125 149.957031 C 185.050781 150.324219 184.867188 150.671875 184.644531 151.003906 C 184.425781 151.335938 184.175781 151.640625 183.894531 151.921875 C 183.613281 152.203125 183.308594 152.453125 182.976562 152.675781 C 182.648438 152.898438 182.300781 153.082031 181.933594 153.234375 C 181.566406 153.386719 181.1875 153.503906 180.800781 153.582031 C 180.410156 153.65625 180.015625 153.695312 179.621094 153.695312 C 179.222656 153.695312 178.832031 153.65625 178.441406 153.582031 C 178.050781 153.503906 177.675781 153.386719 177.308594 153.234375 C 176.941406 153.082031 176.59375 152.898438 176.261719 152.675781 C 175.933594 152.453125 175.628906 152.203125 175.347656 151.921875 C 175.066406 151.640625 174.816406 151.335938 174.59375 151.003906 C 174.375 150.671875 174.1875 150.324219 174.035156 149.957031 C 173.886719 149.589844 173.769531 149.210938 173.691406 148.820312 C 173.617188 148.429688 173.578125 148.035156 173.578125 147.636719 C 173.578125 147.238281 173.617188 146.84375 173.691406 146.453125 C 173.769531 146.0625 173.886719 145.683594 174.035156 145.316406 C 174.1875 144.949219 174.375 144.601562 174.59375 144.269531 C 174.816406 143.9375 175.066406 143.632812 175.347656 143.351562 C 175.628906 143.070312 175.933594 142.820312 176.261719 142.597656 C 176.59375 142.375 176.941406 142.191406 177.308594 142.039062 C 177.675781 141.886719 178.050781 141.769531 178.441406 141.691406 C 178.832031 141.613281 179.222656 141.574219 179.621094 141.574219 C 180.015625 141.574219 180.410156 141.613281 180.800781 141.691406 C 181.1875 141.769531 181.566406 141.886719 181.933594 142.039062 C 182.300781 142.191406 182.648438 142.375 182.976562 142.597656 C 183.308594 142.820312 183.613281 143.070312 183.894531 143.351562 C 184.175781 143.632812 184.425781 143.9375 184.644531 144.269531 C 184.867188 144.601562 185.050781 144.949219 185.203125 145.316406 C 185.355469 145.683594 185.46875 146.0625 185.546875 146.453125 C 185.625 146.84375 185.664062 147.238281 185.664062 147.636719 Z M 185.664062 147.636719 " fill-opacity="1" fill-rule="nonzero"/><path fill="#00afef" d="M 191.230469 113.519531 C 191.230469 113.859375 191.199219 114.195312 191.132812 114.527344 C 191.066406 114.859375 190.96875 115.183594 190.839844 115.5 C 190.707031 115.8125 190.550781 116.109375 190.363281 116.394531 C 190.171875 116.675781 189.960938 116.9375 189.71875 117.175781 C 189.480469 117.417969 189.21875 117.632812 188.9375 117.820312 C 188.65625 118.007812 188.359375 118.167969 188.046875 118.296875 C 187.734375 118.429688 187.410156 118.527344 187.078125 118.59375 C 186.746094 118.660156 186.410156 118.691406 186.070312 118.691406 C 185.734375 118.691406 185.398438 118.660156 185.066406 118.59375 C 184.734375 118.527344 184.410156 118.429688 184.097656 118.296875 C 183.785156 118.167969 183.488281 118.007812 183.207031 117.820312 C 182.925781 117.632812 182.664062 117.417969 182.425781 117.175781 C 182.183594 116.9375 181.972656 116.675781 181.78125 116.394531 C 181.59375 116.109375 181.433594 115.8125 181.304688 115.5 C 181.175781 115.183594 181.078125 114.859375 181.011719 114.527344 C 180.945312 114.195312 180.914062 113.859375 180.914062 113.519531 C 180.914062 113.179688 180.945312 112.84375 181.011719 112.507812 C 181.078125 112.175781 181.175781 111.851562 181.304688 111.539062 C 181.433594 111.226562 181.59375 110.925781 181.78125 110.644531 C 181.972656 110.363281 182.183594 110.101562 182.425781 109.859375 C 182.664062 109.621094 182.925781 109.40625 183.207031 109.214844 C 183.488281 109.027344 183.785156 108.867188 184.097656 108.738281 C 184.410156 108.609375 184.734375 108.511719 185.066406 108.445312 C 185.398438 108.378906 185.734375 108.34375 186.070312 108.34375 C 186.410156 108.34375 186.746094 108.378906 187.078125 108.445312 C 187.410156 108.511719 187.734375 108.609375 188.046875 108.738281 C 188.359375 108.867188 188.65625 109.027344 188.9375 109.214844 C 189.21875 109.40625 189.480469 109.621094 189.71875 109.859375 C 189.960938 110.101562 190.171875 110.363281 190.363281 110.644531 C 190.550781 110.925781 190.707031 111.226562 190.839844 111.539062 C 190.96875 111.851562 191.066406 112.175781 191.132812 112.507812 C 191.199219 112.84375 191.230469 113.179688 191.230469 113.519531 Z M 191.230469 113.519531 " fill-opacity="1" fill-rule="nonzero"/><path fill="#00afef" d="M 209.210938 161.722656 C 209.210938 162.242188 209.160156 162.757812 209.058594 163.269531 C 208.957031 163.78125 208.804688 164.277344 208.609375 164.757812 C 208.410156 165.238281 208.164062 165.695312 207.875 166.128906 C 207.585938 166.5625 207.261719 166.964844 206.894531 167.332031 C 206.523438 167.699219 206.125 168.027344 205.695312 168.320312 C 205.261719 168.609375 204.804688 168.851562 204.324219 169.050781 C 203.847656 169.25 203.351562 169.402344 202.839844 169.503906 C 202.332031 169.605469 201.816406 169.65625 201.296875 169.65625 C 200.777344 169.65625 200.265625 169.605469 199.753906 169.503906 C 199.246094 169.402344 198.75 169.25 198.269531 169.050781 C 197.789062 168.851562 197.335938 168.609375 196.902344 168.320312 C 196.472656 168.027344 196.070312 167.699219 195.703125 167.332031 C 195.335938 166.964844 195.007812 166.5625 194.71875 166.128906 C 194.429688 165.695312 194.1875 165.238281 193.988281 164.757812 C 193.789062 164.277344 193.640625 163.78125 193.539062 163.269531 C 193.4375 162.757812 193.386719 162.242188 193.386719 161.722656 C 193.386719 161.199219 193.4375 160.683594 193.539062 160.175781 C 193.640625 159.664062 193.789062 159.167969 193.988281 158.6875 C 194.1875 158.203125 194.429688 157.746094 194.71875 157.3125 C 195.007812 156.878906 195.335938 156.480469 195.703125 156.113281 C 196.070312 155.742188 196.472656 155.414062 196.902344 155.125 C 197.335938 154.835938 197.789062 154.589844 198.269531 154.390625 C 198.75 154.191406 199.246094 154.042969 199.753906 153.941406 C 200.265625 153.839844 200.777344 153.789062 201.296875 153.789062 C 201.816406 153.789062 202.332031 153.839844 202.839844 153.941406 C 203.351562 154.042969 203.847656 154.191406 204.324219 154.390625 C 204.804688 154.589844 205.261719 154.835938 205.695312 155.125 C 206.125 155.414062 206.523438 155.742188 206.894531 156.113281 C 207.261719 156.480469 207.585938 156.878906 207.875 157.3125 C 208.164062 157.746094 208.410156 158.203125 208.609375 158.6875 C 208.804688 159.167969 208.957031 159.664062 209.058594 160.175781 C 209.160156 160.683594 209.210938 161.199219 209.210938 161.722656 Z M 209.210938 161.722656 " fill-opacity="1" fill-rule="nonzero"/><path fill="#00afef" d="M 229.984375 153.222656 C 229.984375 153.5625 229.953125 153.898438 229.886719 154.234375 C 229.820312 154.566406 229.722656 154.890625 229.589844 155.203125 C 229.460938 155.519531 229.304688 155.816406 229.113281 156.097656 C 228.925781 156.382812 228.710938 156.640625 228.472656 156.882812 C 228.234375 157.121094 227.972656 157.335938 227.691406 157.527344 C 227.410156 157.714844 227.113281 157.875 226.800781 158.003906 C 226.488281 158.132812 226.164062 158.230469 225.832031 158.296875 C 225.5 158.363281 225.164062 158.398438 224.824219 158.398438 C 224.488281 158.398438 224.152344 158.363281 223.820312 158.296875 C 223.488281 158.230469 223.164062 158.132812 222.851562 158.003906 C 222.539062 157.875 222.242188 157.714844 221.960938 157.527344 C 221.675781 157.335938 221.417969 157.121094 221.175781 156.882812 C 220.9375 156.640625 220.722656 156.382812 220.535156 156.097656 C 220.347656 155.816406 220.1875 155.519531 220.058594 155.203125 C 219.929688 154.890625 219.832031 154.566406 219.765625 154.234375 C 219.699219 153.898438 219.667969 153.5625 219.667969 153.222656 C 219.667969 152.882812 219.699219 152.546875 219.765625 152.214844 C 219.832031 151.882812 219.929688 151.558594 220.058594 151.246094 C 220.1875 150.929688 220.347656 150.632812 220.535156 150.351562 C 220.722656 150.066406 220.9375 149.804688 221.175781 149.566406 C 221.417969 149.324219 221.675781 149.109375 221.960938 148.921875 C 222.242188 148.734375 222.539062 148.574219 222.851562 148.445312 C 223.164062 148.3125 223.488281 148.214844 223.820312 148.148438 C 224.152344 148.082031 224.488281 148.050781 224.824219 148.050781 C 225.164062 148.050781 225.5 148.082031 225.832031 148.148438 C 226.164062 148.214844 226.488281 148.3125 226.800781 148.445312 C 227.113281 148.574219 227.410156 148.734375 227.691406 148.921875 C 227.972656 149.109375 228.234375 149.324219 228.472656 149.566406 C 228.710938 149.804688 228.925781 150.066406 229.113281 150.351562 C 229.304688 150.632812 229.460938 150.929688 229.589844 151.246094 C 229.722656 151.558594 229.820312 151.882812 229.886719 152.214844 C 229.953125 152.546875 229.984375 152.882812 229.984375 153.222656 Z M 229.984375 153.222656 " fill-opacity="1" fill-rule="nonzero"/><g fill="#00afef" fill-opacity="1"><g transform="translate(43.281148, 298.971542)"><g><path d="M 41.296875 0.15625 C 36.691406 0.15625 34.203125 -0.582031 33.828125 -2.0625 L 31.203125 -12.3125 L 18.578125 -12.3125 L 16.28125 -2.46875 C 15.957031 -0.820312 13.414062 0 8.65625 0 C 6.113281 0 4.234375 -0.144531 3.015625 -0.4375 C 1.796875 -0.726562 1.1875 -0.953125 1.1875 -1.109375 L 15.25 -54.875 C 15.25 -55.289062 18.875 -55.5 26.125 -55.5 C 33.375 -55.5 37 -55.289062 37 -54.875 L 50.734375 -1.03125 C 50.734375 -0.65625 49.515625 -0.363281 47.078125 -0.15625 C 44.648438 0.0507812 42.722656 0.15625 41.296875 0.15625 Z M 20.5625 -22.390625 L 28.90625 -22.390625 L 25.328125 -38.828125 L 24.859375 -38.828125 Z M 20.5625 -22.390625 "/></g></g></g><g fill="#00afef" fill-opacity="1"><g transform="translate(106.401496, 298.971542)"><g><path d="M 47.484375 -1.75 C 47.484375 -0.632812 44.992188 -0.078125 40.015625 -0.078125 C 35.046875 -0.078125 32.347656 -0.472656 31.921875 -1.265625 L 18.65625 -26.046875 L 18.65625 -1.34375 C 18.65625 -0.394531 16.207031 0.078125 11.3125 0.078125 C 6.414062 0.078125 3.96875 -0.394531 3.96875 -1.34375 L 3.96875 -54.46875 C 3.96875 -55.257812 6.0625 -55.65625 10.25 -55.65625 C 11.882812 -55.65625 13.800781 -55.507812 16 -55.21875 C 18.195312 -54.9375 19.535156 -54.394531 20.015625 -53.59375 L 32.71875 -29.140625 L 32.71875 -54.078125 C 32.71875 -55.078125 35.175781 -55.578125 40.09375 -55.578125 C 45.019531 -55.578125 47.484375 -55.078125 47.484375 -54.078125 Z M 47.484375 -1.75 "/></g></g></g><g fill="#00afef" fill-opacity="1"><g transform="translate(168.966084, 298.971542)"><g><path d="M 3.96875 -3.65625 L 3.96875 -51.296875 C 3.96875 -52.617188 4.296875 -53.660156 4.953125 -54.421875 C 5.617188 -55.191406 6.484375 -55.578125 7.546875 -55.578125 L 20.796875 -55.578125 C 29.222656 -55.578125 35.617188 -53.457031 39.984375 -49.21875 C 44.347656 -44.988281 46.53125 -38.320312 46.53125 -29.21875 C 46.53125 -9.738281 38.21875 0 21.59375 0 L 8.015625 0 C 5.316406 0 3.96875 -1.21875 3.96875 -3.65625 Z M 19.21875 -40.5 L 19.21875 -16.75 C 19.21875 -15.644531 19.296875 -14.945312 19.453125 -14.65625 C 19.609375 -14.363281 20.085938 -14.21875 20.890625 -14.21875 C 23.796875 -14.21875 26.003906 -15.300781 27.515625 -17.46875 C 29.023438 -19.632812 29.78125 -23.242188 29.78125 -28.296875 C 29.78125 -33.359375 29 -36.65625 27.4375 -38.1875 C 25.875 -39.726562 23.398438 -40.5 20.015625 -40.5 Z M 19.21875 -40.5 "/></g></g></g><g fill="#00afef" fill-opacity="1"><g transform="translate(228.990044, 298.971542)"><g><path d="M 29.78125 -33.515625 C 30.78125 -33.515625 31.28125 -31.660156 31.28125 -27.953125 C 31.28125 -26.835938 31.160156 -25.523438 30.921875 -24.015625 C 30.691406 -22.503906 30.257812 -21.75 29.625 -21.75 L 19.53125 -21.75 L 19.53125 -13.8125 L 34.140625 -13.8125 C 35.046875 -13.8125 35.65625 -12.648438 35.96875 -10.328125 C 36.125 -9.316406 36.203125 -8.242188 36.203125 -7.109375 C 36.203125 -5.972656 36.039062 -4.503906 35.71875 -2.703125 C 35.40625 -0.898438 34.878906 0 34.140625 0 L 6.984375 0 C 4.972656 0 3.96875 -0.820312 3.96875 -2.46875 L 3.96875 -53.515625 C 3.96875 -54.890625 4.578125 -55.578125 5.796875 -55.578125 L 34.21875 -55.578125 C 35.332031 -55.578125 35.890625 -53.234375 35.890625 -48.546875 C 35.890625 -43.867188 35.332031 -41.53125 34.21875 -41.53125 L 19.53125 -41.53125 L 19.53125 -33.515625 Z M 29.78125 -33.515625 "/></g></g></g><g fill="#00afef" fill-opacity="1"><g transform="translate(279.248486, 298.971542)"><g><path d="M 0.875 -54.546875 C 0.875 -54.816406 2.023438 -55.066406 4.328125 -55.296875 C 6.628906 -55.535156 8.519531 -55.65625 10 -55.65625 C 15.875 -55.65625 18.945312 -54.890625 19.21875 -53.359375 L 26.046875 -18.421875 L 32.484375 -53.359375 C 32.796875 -54.890625 36.078125 -55.65625 42.328125 -55.65625 C 43.859375 -55.65625 45.785156 -55.550781 48.109375 -55.34375 C 50.441406 -55.132812 51.609375 -54.894531 51.609375 -54.625 L 37.5625 -2.0625 C 37.34375 -1.21875 35.78125 -0.660156 32.875 -0.390625 C 28.375 0.078125 24.285156 0.164062 20.609375 -0.125 C 16.929688 -0.414062 14.984375 -0.929688 14.765625 -1.671875 Z M 0.875 -54.546875 "/></g></g></g><g fill="#f7f7fa" fill-opacity="1"><g transform="translate(67.957843, 347.146266)"><g><path d="M 2.289062 -20.464844 L 2.289062 0 L 12.878906 0 L 12.878906 -4.09375 L 6.382812 -4.09375 L 6.382812 -20.464844 Z M 2.289062 -20.464844 "/></g></g></g><g fill="#f7f7fa" fill-opacity="1"><g transform="translate(87.848464, 347.146266)"><g><path d="M 0.457031 0 L 5.09375 0 L 5.894531 -2.203125 L 12.679688 -2.203125 L 13.507812 0 L 18.117188 0 L 9.5 -21.207031 L 9.074219 -21.207031 Z M 7.382812 -6.039062 L 9.300781 -11.363281 L 11.160156 -6.039062 Z M 7.382812 -6.039062 "/></g></g></g><g fill="#f7f7fa" fill-opacity="1"><g transform="translate(112.317842, 347.146266)"><g><path d="M 2.289062 0 L 10.390625 0 C 13.707031 0 16.429688 -2.71875 16.429688 -6.152344 C 16.429688 -7.757812 15.65625 -9.332031 14.308594 -10.246094 C 15.597656 -11.132812 16.140625 -12.734375 16.199219 -14.28125 C 16.285156 -17.886719 14.023438 -20.492188 10.390625 -20.492188 L 2.289062 -20.492188 Z M 6.410156 -16.398438 L 10.046875 -16.398438 C 11.21875 -16.398438 11.933594 -15.484375 11.933594 -14.339844 C 11.933594 -13.222656 11.21875 -12.277344 10.046875 -12.277344 L 6.410156 -12.277344 Z M 6.410156 -8.183594 L 10.046875 -8.183594 C 11.21875 -8.183594 12.105469 -7.296875 12.105469 -6.152344 C 12.105469 -5.007812 11.21875 -4.09375 10.046875 -4.09375 L 6.410156 -4.09375 Z M 6.410156 -8.183594 "/></g></g></g><g fill="#f7f7fa" fill-opacity="1"><g transform="translate(135.871464, 347.146266)"><g><path d="M 12.136719 0.285156 C 26.214844 0.285156 26.214844 -20.808594 12.136719 -20.808594 C -1.945312 -20.808594 -1.945312 0.285156 12.136719 0.285156 Z M 12.136719 -3.949219 C 3.949219 -3.949219 3.949219 -16.597656 12.136719 -16.597656 C 20.320312 -16.597656 20.320312 -3.949219 12.136719 -3.949219 Z M 12.136719 -3.949219 "/></g></g></g><g fill="#f7f7fa" fill-opacity="1"><g transform="translate(165.892576, 347.146266)"><g><path d="M 12.476562 0 L 17.113281 0 L 12.363281 -8.441406 C 18.375 -10.1875 17.660156 -20.464844 10.359375 -20.464844 L 2.289062 -20.464844 L 2.289062 0 L 6.382812 0 L 6.382812 -7.8125 L 8.355469 -7.8125 Z M 6.382812 -11.792969 L 6.382812 -16.371094 L 9.988281 -16.371094 C 12.765625 -16.371094 12.765625 -11.792969 9.988281 -11.792969 Z M 6.382812 -11.792969 "/></g></g></g><g fill="#f7f7fa" fill-opacity="1"><g transform="translate(189.21727, 347.146266)"><g><path d="M 0.457031 0 L 5.09375 0 L 5.894531 -2.203125 L 12.679688 -2.203125 L 13.507812 0 L 18.117188 0 L 9.5 -21.207031 L 9.074219 -21.207031 Z M 7.382812 -6.039062 L 9.300781 -11.363281 L 11.160156 -6.039062 Z M 7.382812 -6.039062 "/></g></g></g><g fill="#f7f7fa" fill-opacity="1"><g transform="translate(213.686647, 347.146266)"><g><path d="M 9.757812 0 L 9.757812 -16.371094 L 14.855469 -16.371094 L 14.855469 -20.433594 L 0.574219 -20.433594 L 0.574219 -16.371094 L 5.667969 -16.371094 L 5.667969 0 Z M 9.757812 0 "/></g></g></g><g fill="#f7f7fa" fill-opacity="1"><g transform="translate(235.122597, 347.146266)"><g><path d="M 12.136719 0.285156 C 26.214844 0.285156 26.214844 -20.808594 12.136719 -20.808594 C -1.945312 -20.808594 -1.945312 0.285156 12.136719 0.285156 Z M 12.136719 -3.949219 C 3.949219 -3.949219 3.949219 -16.597656 12.136719 -16.597656 C 20.320312 -16.597656 20.320312 -3.949219 12.136719 -3.949219 Z M 12.136719 -3.949219 "/></g></g></g><g fill="#f7f7fa" fill-opacity="1"><g transform="translate(265.143698, 347.146266)"><g><path d="M 12.476562 0 L 17.113281 0 L 12.363281 -8.441406 C 18.375 -10.1875 17.660156 -20.464844 10.359375 -20.464844 L 2.289062 -20.464844 L 2.289062 0 L 6.382812 0 L 6.382812 -7.8125 L 8.355469 -7.8125 Z M 6.382812 -11.792969 L 6.382812 -16.371094 L 9.988281 -16.371094 C 12.765625 -16.371094 12.765625 -11.792969 9.988281 -11.792969 Z M 6.382812 -11.792969 "/></g></g></g><g fill="#f7f7fa" fill-opacity="1"><g transform="translate(288.468403, 347.146266)"><g><path d="M 7.296875 0 L 11.363281 0 L 11.363281 -9.214844 L 18.515625 -20.464844 L 13.507812 -20.464844 L 9.332031 -13.421875 L 5.152344 -20.464844 L 0.171875 -20.464844 L 7.296875 -9.214844 Z M 7.296875 0 "/></g></g></g></svg>